<svg width="34" height="34" viewBox="0 0 34 34" fill="none" xmlns="http://www.w3.org/2000/svg">
<circle cx="17" cy="17" r="16" stroke="white" stroke-width="2"/>
<path fill-rule="evenodd" clip-rule="evenodd" d="M16.625 7C16.83 7 17 7.17 17 7.375V16.25C17 16.665 16.665 17 16.25 17H7.375C7.17 17 7 16.83 7 16.625C7 16.42 7.17 16.25 7.38 16.25C12.245 16.25 16.25 12.245 16.25 7.38C16.25 7.17 16.42 7 16.625 7ZM17.75 17H26.625C26.83 17 27 17.17 27 17.375C27 17.58 26.825 17.75 26.62 17.75C21.755 17.75 17.75 21.755 17.75 26.62C17.75 26.83 17.58 27 17.375 27C17.17 27 17 26.83 17 26.625V17.75C17 17.335 17.335 17 17.75 17Z" fill="white"/>
</svg>
