<svg width="172" height="28" viewBox="0 0 172 28" fill="none" xmlns="http://www.w3.org/2000/svg">
<path d="M18.8114 23.0819L10.9059 0.324219H6.37635L4.9174 4.5443L11.2452 23.0819C11.6354 24.2437 11.5166 25.3543 9.05674 25.3543V26.892H21.4069V25.3543C20.3721 25.3543 19.3882 24.7734 18.8114 23.0819Z" fill="white"/>
<path d="M34.6902 25.2859H35.5045V26.9091H23.0186V25.508C23.5105 25.4739 23.9177 25.3885 24.257 25.2005C24.8168 24.893 25.1222 24.295 25.1222 23.3895V12.0277C25.1222 10.7463 24.9356 10.3704 23.3579 10.4046C23.1034 10.4046 22.832 10.4046 22.4927 10.4388V9.12318C24.2061 8.49102 27.582 7.50007 29.7535 7.50007C31.7723 7.50007 32.2642 8.18349 32.2642 9.90911V10.9342C33.9777 8.67896 35.8098 7.50007 37.8795 7.50007C39.7795 7.50007 41.2894 8.69605 41.2894 10.8146C41.2894 12.8478 39.9492 14.1634 38.1849 14.1634C35.7929 14.1634 36.0134 11.5322 33.8928 11.5322C33.6723 11.5322 33.1464 11.5664 32.2812 12.0277V23.4066C32.2642 24.5 33.0785 25.2859 34.6902 25.2859Z" fill="white"/>
<path d="M43.9867 8.08098H59.9504L60.595 9.14027L50.8065 24.8417H53.911C56.4218 24.8417 58.5423 23.0648 59.3397 20.5191L60.612 20.6729L59.7807 26.9261H42.884L42.3242 25.9523L52.1128 10.1825H49.3475C46.243 10.1825 44.9368 12.1815 44.1564 14.2488L42.7823 14.0609L43.9867 8.08098Z" fill="white"/>
<path d="M82.4114 25.1663C82.5981 25.2005 82.8186 25.1663 83.09 25.1663L83.1239 26.0377C82.123 26.6015 80.1382 27.4729 77.6614 27.4729C74.1836 27.4729 73.4372 25.9352 73.4372 23.7483V23.3382C72.1988 25.4397 70.2988 27.4387 67.313 27.4387C64.463 27.4387 62.8344 25.6276 62.8344 22.9623C62.8344 19.3915 65.7523 18.1784 69.5693 17.3925L73.4542 16.6066V15.9232C73.4542 13.7021 72.6229 12.2327 69.8237 12.2327C68.2969 12.2327 66.0406 12.5744 63.5469 13.1724V10.49C66.7192 8.76439 70.3157 7.51716 73.3354 7.51716C78.6453 7.51716 80.5962 10.4558 80.5962 15.4619V22.8427C80.5793 24.688 81.0034 25.1663 82.4114 25.1663ZM73.4542 22.4327V18.093L71.5032 18.5885C70.197 18.9302 69.23 19.494 69.23 20.8437C69.23 22.3131 70.3836 22.8086 71.5032 22.8086C72.1309 22.8086 72.8095 22.6548 73.4542 22.4327Z" fill="white"/>
<path d="M94.8125 25.1663C95.1518 25.3543 95.525 25.4739 96.017 25.508V26.9091H84.6847V25.508C85.1767 25.4739 85.5838 25.3885 85.9231 25.2005C86.4829 24.893 86.7883 24.295 86.7883 23.3895V12.0277C86.7883 10.7805 86.6017 10.4046 85.2106 10.4046C84.9052 10.4046 84.5829 10.4046 84.1588 10.4388V9.12318C85.8722 8.49102 89.2482 7.50007 91.4196 7.50007C93.4384 7.50007 93.9304 8.18349 93.9304 9.90911V11.3101C95.9152 9.12318 98.3751 7.50007 101.225 7.50007C104.397 7.50007 106.077 8.81565 106.688 11.498C108.74 9.24278 111.217 7.50007 114.169 7.50007C118.325 7.50007 119.92 9.72117 119.92 14.3855V23.3895C119.92 24.295 120.259 24.8246 120.819 25.1663C121.158 25.3543 121.532 25.4739 122.024 25.508V26.9091H110.691V25.508C111.183 25.4739 111.59 25.3885 111.93 25.2005C112.49 24.893 112.795 24.295 112.795 23.3895V16.4699C112.795 13.5654 112.354 11.5835 109.47 11.5835C108.571 11.5835 107.824 11.7031 106.823 12.1473C106.942 12.8307 107.01 13.5825 107.01 14.4026V23.4066C107.01 24.3121 107.349 24.8417 107.909 25.1834C108.248 25.3714 108.622 25.491 109.114 25.5251V26.9261H97.7813V25.5251C98.2733 25.491 98.6804 25.4055 99.0197 25.2176C99.5796 24.9101 99.8849 24.3121 99.8849 23.4066V16.4699C99.8849 13.5654 99.4438 11.5835 96.5599 11.5835C95.6947 11.5835 94.9482 11.7031 93.9813 12.1131V23.4066C93.9134 24.3121 94.2527 24.8417 94.8125 25.1663Z" fill="white"/>
<path d="M143.467 25.1663C143.653 25.2005 143.874 25.1663 144.145 25.1663L144.179 26.0377C143.178 26.6015 141.194 27.4729 138.717 27.4729C135.239 27.4729 134.493 25.9352 134.493 23.7483V23.3382C133.254 25.4397 131.354 27.4387 128.368 27.4387C125.535 27.4387 123.89 25.6276 123.89 22.9623C123.89 19.3915 126.808 18.1784 130.625 17.3925L134.51 16.6066V15.9232C134.51 13.7021 133.678 12.2327 130.879 12.2327C129.352 12.2327 127.096 12.5744 124.602 13.1724V10.49C127.775 8.76439 131.371 7.51716 134.391 7.51716C139.701 7.51716 141.652 10.4558 141.652 15.4619V22.8427C141.635 24.688 142.042 25.1663 143.467 25.1663ZM134.493 22.4327V18.093L132.542 18.5885C131.235 18.9302 130.268 19.494 130.268 20.8437C130.268 22.3131 131.422 22.8086 132.542 22.8086C133.186 22.8086 133.848 22.6548 134.493 22.4327Z" fill="white"/>
<path d="M145.876 26.1573L145.757 20.7412L147.284 20.5533C148.624 23.492 150.541 25.4568 153.12 25.4568C154.918 25.4568 155.919 24.3975 155.919 23.1674C155.919 21.8518 154.68 21.288 153.12 20.8779L151.44 20.4337C148.895 19.7503 146.062 17.9563 146.062 14.488C146.062 10.3875 149.947 7.56841 155.257 7.56841C157.31 7.56841 159.6 7.97846 161.381 9.00358L161.755 13.8217L159.956 13.9413C158.328 10.5584 156.614 9.55032 154.782 9.55032C153.171 9.55032 152.356 10.5754 152.356 11.7714C152.356 13.2408 153.442 13.9242 154.901 14.3L156.954 14.8297C159.414 15.4789 162.416 16.7433 162.416 20.3995C162.416 25.3714 156.988 27.4729 152.475 27.4729C150.287 27.4729 147.827 26.9774 145.876 26.1573Z" fill="white"/>
<path d="M168.133 20.9463C166.335 20.9463 164.35 20.0407 164.35 17.5121C164.35 14.9835 166.335 14.0438 168.133 14.0438C169.881 14.0438 171.916 14.9835 171.916 17.5121C171.899 20.0407 169.881 20.9463 168.133 20.9463Z" fill="white"/>
<path d="M4.06917 21.3392C2.27093 21.3392 0.540543 20.4337 0.540543 17.9051C0.540543 15.3764 2.27093 14.4367 4.06917 14.4367C5.81652 14.4367 7.61476 15.3764 7.61476 17.9051C7.59779 20.4337 5.81652 21.3392 4.06917 21.3392Z" fill="white"/>
</svg>
