<svg width="24" height="24" viewBox="0 0 24 24" fill="none" xmlns="http://www.w3.org/2000/svg">
<path fill-rule="evenodd" clip-rule="evenodd" d="M14.07 10.5298C14.068 10.2197 13.9743 9.91751 13.8005 9.66064C13.6268 9.40378 13.3809 9.20372 13.0939 9.08643C12.8068 8.96913 12.4915 8.93976 12.1876 9.00146C11.8837 9.06317 11.6049 9.21363 11.3864 9.43359C11.1678 9.65355 11.0192 9.93303 10.9595 10.2373C10.8997 10.5416 10.9314 10.8568 11.0505 11.1431C11.1697 11.4294 11.3708 11.6741 11.6288 11.8462C11.8868 12.0183 12.1899 12.1099 12.5 12.1099C12.7071 12.1101 12.9121 12.0697 13.1034 11.9902C13.2947 11.9108 13.4683 11.7944 13.6143 11.6475C13.7602 11.5006 13.8756 11.326 13.9539 11.1343C14.0321 10.9425 14.0715 10.7369 14.07 10.5298ZM13.29 13.6802H11.71C11.516 13.6715 11.3228 13.7105 11.1475 13.7939C10.9721 13.8774 10.82 14.0026 10.7045 14.1587C10.5889 14.3147 10.5135 14.4969 10.4849 14.689C10.4562 14.881 10.4751 15.0768 10.54 15.2598L11.32 18.5C11.2768 18.6785 11.2747 18.8645 11.3138 19.0439C11.353 19.2234 11.4324 19.3918 11.546 19.5361C11.6596 19.6805 11.8045 19.7972 11.9697 19.8774C12.135 19.9577 12.3163 19.9995 12.5 19.9995C12.6837 19.9995 12.865 19.9577 13.0303 19.8774C13.1955 19.7972 13.3404 19.6805 13.454 19.5361C13.5676 19.3918 13.647 19.2234 13.6862 19.0439C13.7253 18.8645 13.7232 18.6785 13.6801 18.5L14.46 15.1802C14.518 15.0016 14.5313 14.8114 14.4988 14.6265C14.4662 14.4415 14.3888 14.2672 14.2733 14.1191C14.1578 13.9711 14.0079 13.8539 13.8364 13.7773C13.665 13.7008 13.4774 13.6674 13.29 13.6802ZM12.5 5C11.038 5.00609 9.63805 5.5918 8.60706 6.62842C7.57607 7.66504 6.99814 9.06776 7 10.5298C7.0064 11.6107 7.326 12.6667 7.92005 13.5698C7.99061 13.6777 8.08704 13.7665 8.20057 13.8276C8.31409 13.8888 8.44101 13.9204 8.56995 13.9199C8.71358 13.9212 8.85491 13.8831 8.97828 13.8096C9.10164 13.736 9.2023 13.6299 9.26941 13.5029C9.33652 13.3759 9.36749 13.2327 9.35877 13.0894C9.35005 12.946 9.30198 12.8079 9.21998 12.6899C8.80181 12.0466 8.57626 11.297 8.56995 10.5298C8.56995 10.0137 8.67164 9.50269 8.86915 9.02588C9.06665 8.54907 9.35614 8.11591 9.72107 7.75098C10.086 7.38604 10.5193 7.09643 10.9961 6.89893C11.4729 6.70142 11.9839 6.6001 12.5 6.6001C13.0161 6.6001 13.5271 6.70142 14.0039 6.89893C14.4807 7.09643 14.914 7.38604 15.2789 7.75098C15.6439 8.11591 15.9334 8.54907 16.1309 9.02588C16.3284 9.50269 16.4301 10.0137 16.4301 10.5298C16.4202 11.2979 16.1912 12.0475 15.77 12.6899C15.6897 12.809 15.6435 12.9478 15.6362 13.0913C15.629 13.2348 15.6611 13.3773 15.729 13.5039C15.7969 13.6305 15.8981 13.7363 16.0216 13.8096C16.1451 13.8829 16.2864 13.921 16.4301 13.9199C16.559 13.9204 16.6859 13.8888 16.7994 13.8276C16.913 13.7665 17.0094 13.6777 17.08 13.5698C17.674 12.6667 17.9936 11.6107 18 10.5298C18.0019 9.06776 17.4239 7.66504 16.3929 6.62842C15.362 5.5918 13.962 5.00609 12.5 5Z" fill="white"/>
</svg>
