<svg width="24" height="24" viewBox="0 0 24 24" fill="none" xmlns="http://www.w3.org/2000/svg">
<path fill-rule="evenodd" clip-rule="evenodd" d="M7.08871 14.8331C7.50038 14.8341 7.90243 14.9566 8.24431 15.1859C8.58619 15.4152 8.85258 15.7408 9.00967 16.1213C9.16675 16.5018 9.20758 16.9204 9.12702 17.3241C9.04646 17.7278 8.84806 18.0987 8.55697 18.3898C8.26587 18.6809 7.89511 18.8792 7.4914 18.9597C7.08768 19.0403 6.66911 18.9997 6.28859 18.8426C5.90806 18.6855 5.58263 18.4189 5.3533 18.077C5.12397 17.7351 5.00101 17.3332 5.00002 16.9215C4.99883 16.6469 5.05211 16.3747 5.15665 16.1208C5.26119 15.8669 5.41493 15.6362 5.60911 15.4421C5.80329 15.2479 6.03404 15.0938 6.28798 14.9892C6.54191 14.8847 6.8141 14.8319 7.08871 14.8331ZM14.9334 19.0002H12.0554C12.0467 17.1326 11.3003 15.3442 9.97874 14.0245C8.65722 12.7049 6.86761 11.9607 5.00002 11.9546V9.06693C7.63192 9.07536 10.1537 10.1243 12.0147 11.9854C13.8758 13.8464 14.925 16.3683 14.9334 19.0002ZM17.022 19.0002C17.0246 17.4212 16.7154 15.857 16.1121 14.3978C15.5087 12.9386 14.6232 11.6132 13.5062 10.4971C12.3892 9.38105 11.0627 8.49651 9.60302 7.89437C8.14332 7.29224 6.57903 6.98429 5.00002 6.98824V4C6.97021 3.99869 8.92143 4.38602 10.7419 5.13938C12.5624 5.89273 14.2165 6.99748 15.6096 8.39062C17.0028 9.78376 18.1075 11.438 18.8609 13.2585C19.6142 15.0789 20.0013 17.03 20 19.0002H17.022Z" fill="white"/>
</svg>
