<svg width="24" height="24" viewBox="0 0 24 24" fill="none" xmlns="http://www.w3.org/2000/svg">
<path d="M19.6636 8.12863C19.4818 7.43772 18.9364 6.89226 18.2455 6.70135C17 6.36499 12 6.36499 12 6.36499C12 6.36499 7 6.36499 5.74545 6.70135C5.05455 6.88317 4.51818 7.42863 4.32727 8.12863C4 9.38317 4 12.0014 4 12.0014C4 12.0014 4 14.6195 4.33636 15.8741C4.51818 16.565 5.06364 17.1104 5.75455 17.3014C7 17.6377 12 17.6377 12 17.6377C12 17.6377 17 17.6377 18.2545 17.3014C18.9455 17.1195 19.4818 16.5741 19.6727 15.8741C20 14.6195 20 12.0014 20 12.0014C20 12.0014 20 9.38317 19.6636 8.12863ZM10.3636 14.3832V9.61954L14.5455 12.0014L10.3636 14.3832Z" fill="white"/>
</svg>
