<svg width="24" height="24" viewBox="0 0 24 24" fill="none" xmlns="http://www.w3.org/2000/svg">
<path fill-rule="evenodd" clip-rule="evenodd" d="M19.4057 7.69395C19.5303 7.30249 19.4057 7.01779 18.8541 7.01779H17.0214C16.5587 7.01779 16.3452 7.2669 16.2206 7.53381C16.2206 7.53381 15.2776 9.81139 13.9609 11.2883C13.5338 11.7153 13.3381 11.8577 13.1068 11.8577C12.9822 11.8577 12.8221 11.7153 12.8221 11.3238V7.67616C12.8221 7.21352 12.6797 7 12.2883 7H9.40569C9.121 7 8.94306 7.21352 8.94306 7.42705C8.94306 7.87189 9.60142 7.97865 9.6726 9.2242V11.9288C9.6726 12.516 9.56584 12.6228 9.33452 12.6228C8.71175 12.6228 7.19929 10.3274 6.29182 7.71174C6.11388 7.19573 5.93594 7 5.47331 7H3.62278C3.08897 7 3 7.24911 3 7.51601C3 7.99644 3.62278 10.4164 5.90036 13.6192C7.41281 15.8078 9.56584 16.9822 11.5053 16.9822C12.6797 16.9822 12.8221 16.7153 12.8221 16.2705V14.6157C12.8221 14.0819 12.9288 13.9929 13.3025 13.9929C13.5694 13.9929 14.0498 14.1352 15.1352 15.1851C16.3808 16.4306 16.5943 17 17.2883 17H19.121C19.6548 17 19.9039 16.7331 19.7616 16.2171C19.6014 15.7011 18.9964 14.9537 18.2135 14.0641C17.7865 13.5658 17.1459 13.0142 16.9502 12.7473C16.6833 12.3915 16.7545 12.2491 16.9502 11.9288C16.9324 11.9288 19.1744 8.76157 19.4057 7.69395Z" fill="white"/>
</svg>
