<svg xmlns="http://www.w3.org/2000/svg" width="14" height="14" viewBox="0 0 14 14"><defs><clipPath id="a"><path fill="#fff" d="M1241.64 25.05l1.41-1.41 4.95 4.95 4.95-4.95 1.41 1.41-4.95 4.95 4.95 4.95-1.41 1.41-4.95-4.95-4.95 4.95-1.41-1.41 4.95-4.95z"/></clipPath></defs><path fill="#fff" d="M.64 2.05L2.05.64 7 5.59 11.95.64l1.41 1.41L8.41 7l4.95 4.95-1.41 1.41L7 8.41l-4.95 4.95-1.41-1.41L5.59 7z"/><path fill="none" stroke="#fff" stroke-miterlimit="50" stroke-width="4" d="M1241.64 25.05l1.41-1.41 4.95 4.95 4.95-4.95 1.41 1.41-4.95 4.95 4.95 4.95-1.41 1.41-4.95-4.95-4.95 4.95-1.41-1.41 4.95-4.95z" clip-path="url(&quot;#a&quot;)" transform="translate(-1241 -23)"/></svg>