<svg xmlns="http://www.w3.org/2000/svg" width="19.969" height="19.969" viewBox="0 0 19.969 19.969">
  <defs>
    <style>
      .cls-1 {
        fill: #1a1a1a;
        fill-rule: evenodd;
      }
    </style>
  </defs>
  <path id="die" class="cls-1" d="M631.635,422.372l8.517-4.917a3.279,3.279,0,0,1,4.478,1.2l4.916,8.517a3.276,3.276,0,0,1-1.2,4.477l-8.516,4.917a3.277,3.277,0,0,1-4.477-1.2l-4.917-8.516A3.277,3.277,0,0,1,631.635,422.372Zm1.99,1.808a1.536,1.536,0,1,1-.562,2.1A1.536,1.536,0,0,1,633.625,424.18Zm7.1-4.1a1.537,1.537,0,1,1-.562,2.1A1.537,1.537,0,0,1,640.722,420.082Zm4.1,7.1a1.536,1.536,0,1,1-.563,2.1A1.536,1.536,0,0,1,644.82,427.179Zm-7.1,4.1a1.537,1.537,0,1,1-.563,2.1A1.537,1.537,0,0,1,637.723,431.276Zm1.5-5.6a1.536,1.536,0,1,1-.563,2.1A1.537,1.537,0,0,1,639.223,425.679Z" transform="translate(-630 -417.031)"/>
</svg>
