<?xml version="1.0" encoding="utf-8"?>
<!-- Generator: Adobe Illustrator 17.1.0, SVG Export Plug-In . SVG Version: 6.00 Build 0)  -->
<!DOCTYPE svg PUBLIC "-//W3C//DTD SVG 1.1//EN" "http://www.w3.org/Graphics/SVG/1.1/DTD/svg11.dtd">
<svg version="1.1" id="Layer_1" xmlns="http://www.w3.org/2000/svg" xmlns:xlink="http://www.w3.org/1999/xlink" x="0px" y="0px"
	 width="18px" height="72px" viewBox="-69 -43 18 72" enable-background="new -69 -43 18 72" xml:space="preserve">
<path fill="#53D2F4" d="M-51-3.3c-0.7,0.3-1.4,0.5-2.1,0.6c0.8-0.4,1.3-1.1,1.6-2C-52.2-4.3-53-4-53.8-3.9C-54.5-4.6-55.5-5-56.5-5
	c-2.4,0-4.1,2.1-3.6,4.3c-3.1-0.1-5.8-1.5-7.6-3.7c-1,1.6-0.5,3.7,1.1,4.7c-0.6,0-1.2-0.2-1.7-0.4c0,1.6,1.2,3.2,3,3.5
	c-0.5,0.2-1.1,0.2-1.7,0.1c0.5,1.4,1.8,2.4,3.4,2.5C-65.1,7.1-67,7.6-69,7.4c1.6,1,3.6,1.6,5.7,1.6c6.9,0,10.7-5.5,10.5-10.5
	C-52.1-2-51.5-2.6-51-3.3z"/>
<path fill="#006697" d="M-58.1-10.9c0.4,0,0.6-0.3,0.6-0.7c0-1.5,0.3-2,1.2-1c1.1,1.2,1.3,1.6,2.5,1.6c0.5,0,1.5,0,1.9,0
	c1.8,0,0.3-1.6-0.9-2.9c-1.2-1.3-1.3-1.3-0.3-2.7c1.4-1.9,2.9-4.3,1.4-4.3c-0.3,0,0.5,0-2.3,0c-0.5,0-0.6,0.3-0.8,0.8
	c-0.7,1.9-2,4.6-2.5,4.2c-0.5-0.4-0.3-1.7-0.3-4c0-0.6,0-1-0.8-1.2c-2.2-0.5-3.9,0.6-3,0.8c1.1,0.3,1.1,2.8,0.8,4
	c-0.5,2-2.4-2.1-3-3.9c-0.2-0.4-0.3-0.8-0.8-0.8c-0.3,0-1.5,0-2,0c-0.5,0-0.7,0.3-0.5,0.7c0.2,0.4,1.9,4.8,4,7.3
	C-60.9-10.5-59.4-10.9-58.1-10.9z"/>
<path fill="#0059A3" d="M-58.2-41c-1.5,0-2.7,1.2-2.7,2.8v2.2H-64v3.1h3.1v5.9h2.9v-5.9h2.8l1.1-3.1H-58v-2h4v-3H-58.2z"/>
<g transform="matrix(.125 0 0 -.125 0 102.5)">
	<path fill="#FF8101" d="M-472,710.9c8.2,0,14.9-6.7,14.9-14.9c0-8.2-6.7-14.9-14.9-14.9c-8.2,0-14.9,6.7-14.9,14.9
		C-486.9,704.2-480.2,710.9-472,710.9z M-472,660c19.9,0,36,16.1,36,36c0,19.9-16.1,36-36,36c-19.9,0-36-16.1-36-36
		C-508,676.1-491.9,660-472,660z"/>
	<path fill="#FF8101" d="M-457.6,629.4c7.3,1.8,14.3,5,20.7,9.4c4.9,3.4,6.3,10.4,3.3,15.8c-3.1,5.4-9.5,7-14.4,3.6
		c-14.6-10.1-33.4-10.1-48,0c-4.9,3.4-11.3,1.8-14.4-3.6c-3.1-5.4-1.6-12.4,3.3-15.8c6.4-4.4,13.4-7.6,20.7-9.4l-19.9-21.9
		c-4.1-4.5-4.1-11.7,0-16.2c2-2.2,4.7-3.4,7.4-3.4c2.7,0,5.3,1.1,7.4,3.4l19.6,21.5l19.6-21.5c4.1-4.5,10.7-4.5,14.8,0
		c4.1,4.5,4.1,11.7,0,16.2L-457.6,629.4"/>
</g>
</svg>
