<?xml version="1.0" encoding="UTF-8" standalone="no"?>
<svg width="13px" height="13px" viewBox="0 0 13 13" version="1.1" xmlns="http://www.w3.org/2000/svg" xmlns:xlink="http://www.w3.org/1999/xlink" xmlns:sketch="http://www.bohemiancoding.com/sketch/ns">
    <!-- Generator: Sketch 3.3.3 (12072) - http://www.bohemiancoding.com/sketch -->
    <title>Untitled</title>
    <desc>Created with Sketch.</desc>
    <defs></defs>
    <g id="Page-1" stroke="none" stroke-width="1" fill="none" fill-rule="evenodd" sketch:type="MSPage">
        <g id="i-time" sketch:type="MSLayerGroup">
            <path d="M6.5,1 C9.5,1 12,3.5 12,6.5 C12,9.5 9.5,12 6.5,12 C3.5,12 1,9.5 1,6.5 C1,3.5 3.5,1 6.5,1 L6.5,1 Z M6.5,0 C2.9,0 0,2.9 0,6.5 C0,10.1 2.9,13 6.5,13 C10.1,13 13,10.1 13,6.5 C13,2.9 10.1,0 6.5,0 L6.5,0 L6.5,0 Z" id="Shape" fill="#FFFFFF" sketch:type="MSShapeGroup"></path>
            <path d="M6.5,3 L6.5,6.5 L10,6.5" id="Shape" stroke="#FFFFFF" sketch:type="MSShapeGroup"></path>
        </g>
    </g>
</svg>