<svg xmlns="http://www.w3.org/2000/svg" xmlns:xlink="http://www.w3.org/1999/xlink" width="45" height="33" viewBox="0 0 45 33"><defs><path id="l3n0a" d="M4858 553c1.08 0 2 .92 2 2v27c0 1.08-.92 2-2 2h-39c-1.08 0-2-.92-2-2v-27c0-1.08.92-2 2-2zm-19.5 18.9l16.33-15.9h-32.66zm-18.5 6.98l10.55-10.55-10.55-10.27zm26.45-10.55l10.55 10.55v-20.82zM4822.11 581h32.78l-10.58-10.58-4.76 4.64a1.5 1.5 0 0 1-2.1 0l-4.76-4.64z"/></defs><g><g transform="translate(-4816 -552)"><use fill="#1a1a1a" xlink:href="#l3n0a"/></g></g></svg>