<svg id="icon" xmlns="http://www.w3.org/2000/svg" width="43" height="43" viewBox="0 0 43 43">
  <metadata><?xpacket begin="﻿" id="W5M0MpCehiHzreSzNTczkc9d"?>
<x:xmpmeta xmlns:x="adobe:ns:meta/" x:xmptk="Adobe XMP Core 5.6-c138 79.159824, 2016/09/14-01:09:01        ">
   <rdf:RDF xmlns:rdf="http://www.w3.org/1999/02/22-rdf-syntax-ns#">
      <rdf:Description rdf:about=""/>
   </rdf:RDF>
</x:xmpmeta>
                                                                                                    
                                                                                                    
                                                                                                    
                                                                                                    
                                                                                                    
                                                                                                    
                                                                                                    
                                                                                                    
                                                                                                    
                                                                                                    
                                                                                                    
                                                                                                    
                                                                                                    
                                                                                                    
                                                                                                    
                                                                                                    
                                                                                                    
                                                                                                    
                                                                                                    
                                                                                                    
                           
<?xpacket end="w"?></metadata>
<defs>
    <style>
      .cls-1 {
        fill: none;
        stroke: #e5e5e5;
        stroke-width: 1px;
      }

      .cls-2 {
        fill: #1a1a1a;
        fill-rule: evenodd;
      }
    </style>
  </defs>
  <circle id="o" class="cls-1" cx="21.5" cy="21.5" r="21"/>
  <path id="book_icon" data-name="book icon" class="cls-2" d="M688.45,1501h-1.4a0.049,0.049,0,0,1-.05-0.05v-1.62a0.455,0.455,0,0,0-.2-0.4,0.5,0.5,0,0,0-.45-0.09,6,6,0,0,1-1.6.19,10.372,10.372,0,0,1-3.15-.59,9.243,9.243,0,0,0-2.5-.5,3.532,3.532,0,0,0-2.1.7h-0.05a3.228,3.228,0,0,0-2.1-.7,7.494,7.494,0,0,0-2.25.45h0a8.812,8.812,0,0,1-5,.5,0.413,0.413,0,0,0-.4.04,0.455,0.455,0,0,0-.2.4V1501h-1.45a0.555,0.555,0,0,0-.55.55v13.88a0.555,0.555,0,0,0,.55.55h22.9a0.555,0.555,0,0,0,.55-0.55v-13.88A0.555,0.555,0,0,0,688.45,1501Zm-10.95-1.42h0a3.691,3.691,0,0,1,3.85-.15,11.762,11.762,0,0,0,3.45.65,8.207,8.207,0,0,0,1.15-.1,0.049,0.049,0,0,1,.05.05v12.66a0.049,0.049,0,0,1-.05.05,8.926,8.926,0,0,1-1.15.1,10.685,10.685,0,0,1-3.15-.59,9.243,9.243,0,0,0-2.5-.5,3.214,3.214,0,0,0-1.55.35c-0.05,0-.05,0-0.05-0.05v-12.47H677.5Zm-7.2.4a13.718,13.718,0,0,0,1.95-.45,0.049,0.049,0,0,1,.05.05v4.51l-0.65-.65a0.54,0.54,0,0,0-.35-0.15,0.454,0.454,0,0,0-.35.15l-0.65.65v-4.11Zm-2.3,0,1.3,0.05v5.2a0.437,0.437,0,0,0,.3.45,0.456,0.456,0,0,0,.55-0.1l1.1-1.09h0.05l1.1,1.09a0.456,0.456,0,0,0,.55.1,0.48,0.48,0,0,0,.3-0.45v-5.95a0.049,0.049,0,0,1,.05-0.05,6.478,6.478,0,0,1,1.55-.3,2.485,2.485,0,0,1,1.65.6v12.57a0.049,0.049,0,0,1-.05.05,3.35,3.35,0,0,0-1.55-.35,9.611,9.611,0,0,0-2.5.49,10.675,10.675,0,0,1-3.15.6,8.207,8.207,0,0,1-1.15-.1,0.141,0.141,0,0,1-.1-0.1v-12.71Zm20,14.95h0l-21.95.05a0.049,0.049,0,0,1-.05-0.05v-12.88a0.049,0.049,0,0,1,.05-0.05h0.9a0.049,0.049,0,0,1,.05.05v11.04a0.487,0.487,0,0,0,.4.5,7.437,7.437,0,0,0,1.8.25,11.762,11.762,0,0,0,3.45-.65,7.829,7.829,0,0,1,2.2-.45,2.538,2.538,0,0,1,1.8.75h0a0.531,0.531,0,0,0,.7,0,2.538,2.538,0,0,1,1.8-.75,10.124,10.124,0,0,1,2.2.45,11.762,11.762,0,0,0,3.45.65,7.437,7.437,0,0,0,1.8-.25,0.526,0.526,0,0,0,.4-0.5v-11.04a0.049,0.049,0,0,1,.05-0.05h0.9a0.049,0.049,0,0,1,.05.05v12.88Z" transform="translate(-655.656 -1485.69)"/>
</svg>
