<svg xmlns="http://www.w3.org/2000/svg" xmlns:xlink="http://www.w3.org/1999/xlink" width="14" height="21" viewBox="0 0 14 21"><defs><path id="ud0va" d="M488.16 208.37a1.87 1.87 0 0 0 3.74 0 1.87 1.87 0 0 0-3.74 0zm-2.65 0a4.5 4.5 0 0 1 4.52-4.5 4.5 4.5 0 0 1 0 8.98c-2.5 0-4.52-2-4.52-4.48zm6.33 8.3l2.52 2.74c.52.56.52 1.46 0 2.02-.51.56-1.34.56-1.86 0l-2.46-2.68-2.46 2.68c-.26.29-.59.42-.93.42-.34 0-.68-.15-.93-.42a1.51 1.51 0 0 1 0-2.02l2.5-2.73a7.99 7.99 0 0 1-2.6-1.18 1.5 1.5 0 0 1-.41-1.97c.39-.67 1.19-.87 1.8-.45a5.28 5.28 0 0 0 6.03 0c.62-.42 1.42-.22 1.81.45.38.68.2 1.55-.41 1.97-.8.55-1.68.95-2.6 1.18z"/></defs><g><g transform="translate(-483 -202)"><use fill="#fff" xlink:href="#ud0va"/></g></g></svg>