<svg xmlns="http://www.w3.org/2000/svg" xmlns:xlink="http://www.w3.org/1999/xlink" width="10" height="17" viewBox="0 0 10 17"><defs><path id="ihxua" d="M4859.79 1082.3c0-2.37 1.89-4.3 4.21-4.3 2.32 0 4.2 1.93 4.2 4.3 0 2.38-1.88 4.3-4.2 4.3a4.26 4.26 0 0 1-4.21-4.3zm2.14 0a2.1 2.1 0 0 0 2.07 2.12 2.1 2.1 0 0 0 2.07-2.12 2.1 2.1 0 0 0-2.07-2.11 2.1 2.1 0 0 0-2.07 2.11zm5.81 6.78c-.9.6-2.12.81-2.92.9l.67.68 2.48 2.54a1 1 0 0 1 0 1.4l-.11.11a.95.95 0 0 1-1.37 0l-2.48-2.53-2.48 2.53a.95.95 0 0 1-1.36 0l-.12-.12a1 1 0 0 1 0-1.4l2.48-2.53.67-.68c-.8-.08-2.04-.3-2.94-.9-1.06-.69-1.53-1.1-1.11-1.95.24-.49.9-.9 1.77-.19 1.18.95 3.08.95 3.08.95s1.9 0 3.08-.95c.88-.7 1.53-.3 1.77.19.42.85-.05 1.26-1.1 1.95z"/></defs><g><g transform="translate(-4859 -1078)"><use fill="#fff" xlink:href="#ihxua"/></g></g></svg>