<svg xmlns="http://www.w3.org/2000/svg" xmlns:xlink="http://www.w3.org/1999/xlink" width="22" height="17" viewBox="0 0 22 17"><defs><path id="ic38a" d="M498.07 181.6c-.7.3-1.4.5-2.11.6.8-.4 1.3-1.1 1.6-1.99-.7.4-1.5.7-2.3.8a3.9 3.9 0 0 0-2.72-1.1c-2.41 0-4.12 2.1-3.62 4.3-3.11-.1-5.82-1.5-7.63-3.7-1 1.6-.5 3.7 1.1 4.69-.6 0-1.2-.2-1.7-.4 0 1.6 1.2 3.2 3 3.5-.5.2-1.1.2-1.7.1.5 1.4 1.8 2.39 3.42 2.49a7.82 7.82 0 0 1-5.43 1.4c1.6 1 3.62 1.6 5.73 1.6 6.93 0 10.75-5.5 10.55-10.49.7-.5 1.3-1.1 1.8-1.8z"/></defs><g><g transform="translate(-478 -178)"><use fill="#fff" xlink:href="#ic38a"/></g></g></svg>