<svg xmlns="http://www.w3.org/2000/svg" xmlns:xlink="http://www.w3.org/1999/xlink" width="17" height="13" viewBox="0 0 17 13"><defs><path id="eucla" d="M4924 1081.56c-.6.27-1.3.46-2 .56.7-.37 1.3-1.01 1.5-1.85-.7.37-1.4.65-2.2.84-.6-.74-1.5-1.11-2.5-1.11-2.3 0-3.9 1.94-3.4 3.97a9.76 9.76 0 0 1-7.2-3.41 3.2 3.2 0 0 0 1.1 4.42c-.6 0-1.1-.19-1.6-.37 0 1.47 1.1 2.95 2.8 3.23-.5.1-1 .1-1.6 0 .4 1.3 1.7 2.21 3.3 2.3a7.39 7.39 0 0 1-5.2 1.39c1.5.92 3.4 1.47 5.3 1.47 6.5 0 10.1-5.07 9.9-9.68.7-.56 1.3-1.1 1.8-1.76z"/></defs><g><g transform="translate(-4907 -1080)"><use fill="#fff" xlink:href="#eucla"/></g></g></svg>