<svg xmlns="http://www.w3.org/2000/svg" xmlns:xlink="http://www.w3.org/1999/xlink" width="20" height="14" viewBox="0 0 20 14"><defs><path id="j3ina" d="M490.93 168.02c.4 0 .6-.3.6-.7 0-1.5.3-2 1.21-1 1.1 1.2 1.3 1.6 2.51 1.6h1.91c1.81 0 .3-1.6-.9-2.9-1.2-1.29-1.3-1.29-.3-2.68 1.4-1.9 2.91-4.3 1.4-4.3h-2.3c-.5 0-.61.3-.81.8-.7 1.9-2.01 4.6-2.51 4.2-.5-.4-.3-1.7-.3-4 0-.6 0-1-.8-1.2-2.22-.5-3.93.6-3.02.8 1.1.3 1.1 2.8.8 4-.5 1.99-2.41-2.1-3.01-3.9-.2-.4-.3-.8-.8-.8h-2.02c-.5 0-.7.3-.5.7.2.4 1.91 4.8 4.02 7.29 2.01 2.5 3.52 2.1 4.82 2.1z"/></defs><g><g transform="translate(-480 -156)"><use fill="#1a1a1a" xlink:href="#j3ina"/></g></g></svg>