<svg xmlns="http://www.w3.org/2000/svg" xmlns:xlink="http://www.w3.org/1999/xlink" width="16" height="10" viewBox="0 0 16 10"><defs><path id="s8nsa" d="M4769.2 1091.78h-1.96c-1.25 0-1.51-.45-2.58-1.53-.98-.99-1.16-.45-1.16 1 0 .35-.18.71-.62.71-1.34 0-2.85.45-4.8-1.8-2.14-2.43-3.92-6.75-4.01-7.2-.18-.54 0-.72.44-.72h2.05c.62 0 .62.36.8.72.71 1.71 2.58 5.67 3.03 3.78.26-1.08.26-3.6-.9-3.87-.8-.18.9-1.26 3.12-.72.8.18.8.63.8 1.17 0 2.16-.26 3.51.27 3.87.53.36 1.78-2.34 2.5-4.14.17-.54.26-.81.8-.81h2.22c1.51 0 0 2.34-1.34 4.05-1.07 1.44-.98 1.44.18 2.7 1.51 1.26 2.94 2.8 1.16 2.8z"/></defs><g><g transform="translate(-4754 -1082)"><use fill="#fff" xlink:href="#s8nsa"/></g></g></svg>