<svg id="SvgjsSvg1000" xmlns="http://www.w3.org/2000/svg" version="1.1" xmlns:xlink="http://www.w3.org/1999/xlink" xmlns:svgjs="http://svgjs.com/svgjs" width="17" height="16" viewBox="0 0 17 16"><title>image icon</title><desc>Created with Avocode.</desc><defs id="SvgjsDefs1001"></defs><path id="SvgjsPath1007" d="M3740.78 3456.88C3740.4900000000002 3456.05 3741.9900000000002 3455.84 3741.9900000000002 3454.9700000000003C3741.9900000000002 3454.1000000000004 3740.7500000000005 3454.1000000000004 3740.7500000000005 3453.2300000000005C3740.7500000000005 3452.3700000000003 3741.9900000000002 3452.3700000000003 3741.9900000000002 3451.5000000000005C3741.9900000000002 3450.6300000000006 3740.7500000000005 3450.6300000000006 3740.7500000000005 3449.7600000000007C3740.7500000000005 3448.890000000001 3741.9900000000002 3448.890000000001 3741.9900000000002 3448.0300000000007C3741.9900000000002 3447.1600000000008 3740.7500000000005 3447.1600000000008 3740.7500000000005 3446.290000000001C3740.7500000000005 3445.420000000001 3742.4700000000003 3444.830000000001 3741.8300000000004 3444.190000000001C3741.7400000000002 3444.090000000001 3741.6400000000003 3444.050000000001 3741.5400000000004 3444.050000000001C3741.01 3444.050000000001 3740.3700000000003 3445.110000000001 3739.6400000000003 3445.110000000001C3738.78 3445.110000000001 3738.78 3444.000000000001 3737.9200000000005 3444.000000000001C3737.0600000000004 3444.000000000001 3737.0600000000004 3445.110000000001 3736.2000000000007 3445.110000000001C3735.3400000000006 3445.110000000001 3735.3400000000006 3444.000000000001 3734.480000000001 3444.000000000001C3733.620000000001 3444.000000000001 3733.620000000001 3445.110000000001 3732.760000000001 3445.110000000001C3731.900000000001 3445.110000000001 3731.900000000001 3444.000000000001 3731.050000000001 3444.000000000001C3730.190000000001 3444.000000000001 3730.190000000001 3445.110000000001 3729.3300000000013 3445.110000000001C3728.6100000000015 3445.110000000001 3727.970000000001 3444.060000000001 3727.4400000000014 3444.060000000001C3727.3400000000015 3444.060000000001 3727.2400000000016 3444.100000000001 3727.1500000000015 3444.190000000001C3726.5100000000016 3444.840000000001 3728.2300000000014 3445.4300000000007 3728.2300000000014 3446.300000000001C3728.2300000000014 3447.170000000001 3726.9900000000016 3447.170000000001 3726.9900000000016 3448.040000000001C3726.9900000000016 3448.9100000000008 3728.2300000000014 3448.9100000000008 3728.2300000000014 3449.7800000000007C3728.2300000000014 3450.640000000001 3726.9900000000016 3450.640000000001 3726.9900000000016 3451.5100000000007C3726.9900000000016 3452.3800000000006 3728.2300000000014 3452.3800000000006 3728.2300000000014 3453.2500000000005C3728.2300000000014 3454.1200000000003 3726.9900000000016 3454.1200000000003 3726.9900000000016 3454.9800000000005C3726.9900000000016 3455.8500000000004 3728.2300000000014 3455.8500000000004 3728.2300000000014 3456.7200000000003C3728.2300000000014 3457.59 3726.5100000000016 3458.17 3727.1500000000015 3458.82C3727.2400000000016 3458.92 3727.3400000000015 3458.9500000000003 3727.4400000000014 3458.9500000000003C3727.9700000000016 3458.9500000000003 3728.6100000000015 3457.9 3729.3400000000015 3457.9C3730.2000000000016 3457.9 3730.2000000000016 3459.01 3731.0600000000013 3459.01C3731.9200000000014 3459.01 3731.9200000000014 3457.9 3732.780000000001 3457.9C3733.6400000000012 3457.9 3733.6400000000012 3459.01 3734.500000000001 3459.01C3735.360000000001 3459.01 3735.360000000001 3457.9 3736.2200000000007 3457.9C3737.080000000001 3457.9 3737.080000000001 3459.01 3737.9300000000007 3459.01C3738.790000000001 3459.01 3738.790000000001 3457.9 3739.6500000000005 3457.9C3740.3700000000003 3457.9 3741.0100000000007 3458.9500000000003 3741.5400000000004 3458.9500000000003C3741.6400000000003 3458.9500000000003 3741.7400000000002 3458.9100000000003 3741.8300000000004 3458.82C3742.4700000000003 3458.17 3741.1500000000005 3457.9700000000003 3740.78 3456.88ZM3738 3455L3731 3455L3731 3448L3738 3448Z " fill="#ffffff" fill-opacity="1" transform="matrix(1,0,0,1,-3726,-3444)"></path></svg>