<svg xmlns="http://www.w3.org/2000/svg" width="320.03" height="49" viewBox="0 0 320.03 49">
  <defs>
    <style>
      .cls-1 {
        fill: #fff;
        fill-rule: evenodd;
      }
    </style>
  </defs>
  <path id="arzamas_logo_white" data-name="arzamas logo white" class="cls-1" d="M899.11,178.07L884.346,137h-8.453l-2.721,7.6,11.821,33.469c0.717,2.092.5,4.113-4.083,4.113v2.79h23.067v-2.79c-1.934,0-3.8-1.044-4.867-4.113m29.663,3.983h1.535v2.92h-23.32v-2.515a5.708,5.708,0,0,0,2.3-.542,3.339,3.339,0,0,0,1.607-3.262v-20.52c0-2.312-.349-2.99-3.283-2.92a14.93,14.93,0,0,0-1.605.063V152.9c3.212-1.154,9.5-2.921,13.545-2.921,3.77,0,4.677,1.221,4.677,4.346v1.836c3.211-4.076,6.633-6.182,10.473-6.182,3.562,0,6.352,2.173,6.352,5.98a5.681,5.681,0,0,1-5.794,6.046c-4.468,0-4.049-4.755-8.03-4.755a6.627,6.627,0,0,0-3,.883v20.52C924.234,180.626,925.77,182.053,928.773,182.053ZM946.142,151h29.811l1.188,1.9-18.292,28.334h5.791a10.752,10.752,0,0,0,10.126-7.813l2.375,0.273-1.536,11.278H944.047L943,183.206l18.294-28.471h-5.17c-5.791,0-8.238,3.6-9.7,7.341l-2.581-.341Zm71.768,30.848a7.5,7.5,0,0,0,1.25,0l0.07,1.564a21.892,21.892,0,0,1-10.19,2.582c-6.49,0-7.89-2.787-7.89-6.727v-0.748c-2.3,3.806-5.862,7.407-11.448,7.407-5.308,0-8.38-3.262-8.38-8.087,0-6.456,5.447-8.628,12.569-10.055l7.259-1.426v-1.225c0-4.009-1.534-6.658-6.773-6.658a56.791,56.791,0,0,0-11.728,1.7v-4.824c5.936-3.125,12.639-5.367,18.291-5.367,9.91,0,13.55,5.3,13.55,14.339v13.314C1014.49,180.964,1015.25,181.847,1017.91,181.847Zm-16.76-4.96v-7.814l-3.628.885c-2.443.612-4.261,1.629-4.261,4.076,0,2.65,2.165,3.533,4.261,3.533A11.436,11.436,0,0,0,1001.15,176.887Zm39.9,4.96a5.358,5.358,0,0,0,2.24.611v2.515h-21.16v-2.515a5.728,5.728,0,0,0,2.31-.542,3.334,3.334,0,0,0,1.6-3.262v-20.52c0-2.244-.35-2.92-2.93-2.92-0.56,0-1.19,0-1.95.063V152.9c3.21-1.154,9.49-2.921,13.54-2.921,3.77,0,4.68,1.221,4.68,4.346v2.516c3.7-3.941,8.31-6.862,13.61-6.862,5.94,0,9.08,2.377,10.19,7.2,3.84-4.078,8.46-7.2,13.97-7.2,7.75,0,10.75,4.009,10.75,12.433v16.241a3.346,3.346,0,0,0,1.67,3.193,5.4,5.4,0,0,0,2.24.611v2.515h-21.16v-2.515a5.728,5.728,0,0,0,2.31-.542,3.334,3.334,0,0,0,1.6-3.262v-12.5c0-5.23-.83-8.831-6.21-8.831a11.327,11.327,0,0,0-4.95,1.018,25.077,25.077,0,0,1,.35,4.076v16.241a3.329,3.329,0,0,0,1.67,3.193,5.311,5.311,0,0,0,2.23.611v2.515H1046.5v-2.515a5.678,5.678,0,0,0,2.3-.542,3.339,3.339,0,0,0,1.61-3.262v-12.5c0-5.23-.84-8.831-6.22-8.831a11.672,11.672,0,0,0-4.81.949v20.386A3.346,3.346,0,0,0,1041.05,181.847Zm90.86,0a7.515,7.515,0,0,0,1.25,0l0.07,1.564a21.892,21.892,0,0,1-10.19,2.582c-6.49,0-7.89-2.787-7.89-6.727v-0.748c-2.3,3.806-5.87,7.407-11.45,7.407-5.3,0-8.38-3.262-8.38-8.087,0-6.456,5.45-8.628,12.57-10.055l7.26-1.426v-1.225c0-4.009-1.54-6.658-6.77-6.658a56.853,56.853,0,0,0-11.73,1.7v-4.824c5.93-3.125,12.63-5.367,18.29-5.367,9.92,0,13.55,5.3,13.55,14.339v13.314C1128.49,180.964,1129.26,181.847,1131.91,181.847Zm-16.76-4.96v-7.814l-3.63.885c-2.44.612-4.26,1.629-4.26,4.076,0,2.65,2.17,3.533,4.26,3.533A11.437,11.437,0,0,0,1115.15,176.887Zm21.28,6.725-0.21-9.783,2.86-.341c2.51,5.3,6.07,8.836,10.89,8.836,3.35,0,5.24-1.9,5.24-4.145,0-2.379-2.31-3.4-5.24-4.145l-3.14-.815c-4.75-1.224-10.05-4.484-10.05-10.737,0-7.407,7.26-12.5,17.17-12.5a24.577,24.577,0,0,1,11.45,2.582l0.7,8.7-3.35.2c-3.07-5.981-6.29-7.816-9.71-7.816-3,0-4.54,1.835-4.54,4.01,0,2.65,2.03,3.875,4.75,4.555l3.84,0.948c4.61,1.159,10.2,3.466,10.2,10.059,0,8.968-10.13,12.774-18.57,12.774A33.917,33.917,0,0,1,1136.43,183.612Zm41.55-9.407c-3.36,0-7.06-1.633-7.06-6.184s3.7-6.251,7.06-6.251c3.27,0,7.05,1.7,7.05,6.251S1181.25,174.205,1177.98,174.205Zm-306.4.714c-3.352,0-6.579-1.633-6.579-6.184s3.227-6.252,6.579-6.252c3.277,0,6.609,1.7,6.609,6.252S874.852,174.919,871.575,174.919Z" transform="translate(-865 -137)"/>
</svg>
