<svg xmlns="http://www.w3.org/2000/svg" width="68" height="10" viewBox="0 0 68 10">
  <metadata><?xpacket begin="﻿" id="W5M0MpCehiHzreSzNTczkc9d"?>
<x:xmpmeta xmlns:x="adobe:ns:meta/" x:xmptk="Adobe XMP Core 5.6-c138 79.159824, 2016/09/14-01:09:01        ">
   <rdf:RDF xmlns:rdf="http://www.w3.org/1999/02/22-rdf-syntax-ns#">
      <rdf:Description rdf:about=""/>
   </rdf:RDF>
</x:xmpmeta>
                                                                                                    
                                                                                                    
                                                                                                    
                                                                                                    
                                                                                                    
                                                                                                    
                                                                                                    
                                                                                                    
                                                                                                    
                                                                                                    
                                                                                                    
                                                                                                    
                                                                                                    
                                                                                                    
                                                                                                    
                                                                                                    
                                                                                                    
                                                                                                    
                                                                                                    
                                                                                                    
                           
<?xpacket end="w"?></metadata>
<defs>
    <style>
      .cls-1, .cls-2 {
        fill-rule: evenodd;
      }

      .cls-2 {
        fill: #696969;
      }
    </style>
  </defs>
  <path id="shades" class="cls-1" d="M1428,1034v2h2v2h16v-2h2v-2h2v-2h2v4h2v2h2v2h14v-2h2v-2h2v-2h2v-2h14v-2h-64v4h2Zm64,0h2v-2h-4v2h2Z" transform="translate(-1426 -1030)"/>
  <path id="light" class="cls-2" d="M1438,1036v-2h-2v2h2Zm4,0v-2h-2v2h2Zm2-4h-2v2h2v-2Zm-4,0h-2v2h2v-2Zm24,4h-2v2h2v-2Zm2-2h-2v2h2v-2Zm0,4h2v-2h-2v2Zm4-2v-2h-2v2h2Zm2-4h-2v2h2v-2Zm-4,0h-2v2h2v-2Z" transform="translate(-1426 -1030)"/>
</svg>
