<svg xmlns="http://www.w3.org/2000/svg" width="16" height="25" viewBox="0 0 16 25"><path fill="#fff" d="M12 25H4a1 1 0 0 1-1-1 1 1 0 0 1 1-1h3v-5-.06c-3.94-.5-7-3.87-7-7.94a1 1 0 0 1 1-1 1 1 0 0 1 1 1 6 6 0 0 0 12 0 1 1 0 0 1 1-1 1 1 0 0 1 1 1 8.01 8.01 0 0 1-7 7.94V23h3a1 1 0 0 1 1 1 1 1 0 0 1-1 1zM8 14a4 4 0 0 1-3.87-3H5a1 1 0 0 0 1-1 1 1 0 0 0-1-1H4V8h1a1 1 0 0 0 1-1 1 1 0 0 0-1-1H4V5h1a1 1 0 0 0 1-1 1 1 0 0 0-1-1h-.87a4 4 0 0 1 7.74 0H11a1 1 0 0 0-1 1 1 1 0 0 0 1 1h1v1h-1a1 1 0 0 0-1 1 1 1 0 0 0 1 1h1v1h-1a1 1 0 0 0-1 1 1 1 0 0 0 1 1h.87A4 4 0 0 1 8 14z"/></svg>