<svg xmlns="http://www.w3.org/2000/svg" width="22" height="20" viewBox="0 0 22 20">
  <defs>
    <style>
      .cls-1 {
        fill: #1a1a1a;
        fill-rule: evenodd;
      }
    </style>
  </defs>
  <path id="history" class="cls-1" d="M9629,185a1,1,0,0,0-1,1v5a1,1,0,0,0,.29.708l2.54,2.535a0.995,0.995,0,0,0,1.41,0,1,1,0,0,0,0-1.414l-2.24-2.243V186A1,1,0,0,0,9629,185Zm0-4a10.008,10.008,0,0,0-9.97,9.381L9617,190l3,3.937,3-3.937-1.97.369a7.987,7.987,0,1,1,2.31,6.288,1,1,0,1,0-1.41,1.414A10,10,0,1,0,9629,181Z" transform="translate(-9617 -181)"/>
</svg>
