<?xml version="1.0" encoding="utf-8"?>
<!-- Generator: Adobe Illustrator 18.0.0, SVG Export Plug-In . SVG Version: 6.00 Build 0)  -->
<!DOCTYPE svg PUBLIC "-//W3C//DTD SVG 1.1//EN" "http://www.w3.org/Graphics/SVG/1.1/DTD/svg11.dtd">
<svg version="1.1" id="Layer_1" xmlns="http://www.w3.org/2000/svg" xmlns:xlink="http://www.w3.org/1999/xlink" x="0px" y="0px"
	 viewBox="0 0 138 30" enable-background="new 0 0 138 30" xml:space="preserve">
<g>
	<path d="M13.9,12.7l-5.7,9.9H0l0.1-1.2c1.3-0.2,2.3-1.2,3.2-2.8l5.6-9.2l4.9,3.1V12.7z M21.5,19.7c0,0.7,0.3,1.3,0.8,1.5
		c0.3,0.2,0.6,0.3,1,0.3v1.2h-9.8v-1.2c0.4,0,0.8-0.1,1-0.3c0.5-0.3,0.7-0.8,0.7-1.5V3.8c0-0.7-0.3-1.3-0.8-1.5
		c-0.3-0.2-0.8-0.3-1.2-0.3V0.9h10.1v1.2c-0.4,0-0.9,0.1-1.2,0.3c-0.5,0.3-0.7,0.8-0.7,1.5V19.7z M22.8,12.4l4.9-2.9l5.6,9.1
		c0.9,1.6,2.1,2.6,3.4,2.8l-0.1,1.2h-8l-5.7-10V12.4z"/>
	<path d="M70.3,13.7c0-3.9-1.7-7.3-5.7-7.3c-1.4,0-3.4,0.4-5.3,2.9V8.5c0-1.4-0.4-2-2-2c-0.9,0-2.2,0.5-11,0.5v1.2
		c1.5,0.2,2.3,1.1,1.6,2.9l-2.4,6l-3.1-7.4C42,8.8,42.8,8.1,44,8.1V6.9H33.9v1.2c0.8,0.1,1.6,0.6,2.1,1.7l4.9,10.9l0.8,1.8l0.2,0.3
		l0.5,1.2c-1.1,1.6-2.2,1.8-5,1.8c-1.7,0-2.4,0.9-2.4,2.1c0,1,0.7,1.8,2.5,1.8c4.2,0,6.2-5,7.1-7l1.6-3.5l0.1-0.1l4.2-9.1
		c0.8-1.6,1.4-1.7,2-1.7c0.7,0,0.8,0,0.8,0v18.3c0,0.8-0.3,1.3-0.7,1.5c-0.3,0.2-0.6,0.2-1,0.3v1.2h10.5v-1.3H61
		c-1.2,0-1.7-0.7-1.7-1.6V23C65.7,22.9,70.3,20.2,70.3,13.7z M59.3,10c0.5-0.2,1-0.2,1.5-0.2c2.4,0,3.4,2.1,3.4,5.1
		c0,3.2-1.1,6.3-3.9,6.3c-0.3,0-0.7,0-1-0.1V10z"/>
	<path d="M84.9,15.3h-5v4.4c0,0.8,0.3,1.2,0.8,1.5c0.3,0.2,0.6,0.3,1,0.3v1.2h-9.5v-1.2c0.4,0,0.8-0.1,1-0.3
		c0.5-0.3,0.7-0.8,0.7-1.5V9.8c0-0.8-0.3-1.3-0.7-1.5c-0.3-0.2-0.6-0.2-1-0.3V6.9h9.5v1.2c-0.4,0-0.7,0.1-1,0.3
		C80.2,8.6,80,9.1,80,9.8v4h5v-4c0-0.8-0.3-1.2-0.8-1.5c-0.3-0.2-0.6-0.3-1-0.3V6.9h9.5v1.2c-0.4,0-0.8,0.1-1,0.3
		c-0.5,0.3-0.7,0.8-0.7,1.5v9.8c0,0.8,0.3,1.3,0.7,1.5c0.3,0.2,0.6,0.2,1,0.3v1.2h-9.5v-1.2c0.4,0,0.7-0.1,1-0.3
		c0.5-0.3,0.8-0.7,0.8-1.5V15.3z"/>
	<path d="M110.5,21.2c0.2,0,0.3,0,0.6,0l0,0.7c-0.8,0.5-2.5,1.2-4.6,1.2c-2.9,0-3.5-1.3-3.5-3.1v-0.3c-1,1.8-2.6,3.4-5.1,3.4
		c-2.4,0-3.8-1.5-3.8-3.7c0-3,2.4-4,5.6-4.6L103,14v-0.6c0-1.8-0.7-3.1-3-3.1c-1.3,0-3.2,0.3-5.3,0.8V8.9c2.7-1.4,5.7-2.5,8.2-2.5
		c4.5,0,6.1,2.4,6.1,6.6v6.1C109,20.8,109.4,21.2,110.5,21.2z M103,18.9v-3.6l-1.6,0.4c-1.1,0.3-1.9,0.8-1.9,1.9
		c0,1.2,1,1.6,1.9,1.6C101.9,19.2,102.5,19.1,103,18.9z"/>
	<path d="M121.5,8.4h-4c-0.2,9.4-0.6,14.5-4.6,14.5c-1.4,0-2.1-1-2.1-2c0-1.4,0.7-2.1,2.1-2.6c2.4-0.7,3.1-3.4,3.1-8.3
		c0-1.2-0.7-1.9-2-1.9V6.9h15.2v1.2c-0.4,0-0.8,0.1-1,0.3c-0.5,0.3-0.7,0.8-0.7,1.5v9.8c0,0.8,0.3,1.3,0.7,1.5
		c0.3,0.2,0.6,0.2,1,0.3v1.2h-9.5v-1.2c0.4,0,0.7-0.1,1-0.3c0.5-0.3,0.8-0.7,0.8-1.5V8.4z"/>
	<path d="M134.8,22.8c-1.5,0-3.2-0.8-3.2-2.9c0-2.1,1.7-2.9,3.2-2.9c1.5,0,3.2,0.8,3.2,2.9C138,22.1,136.3,22.8,134.8,22.8z"/>
</g>
<path d="M7.2,6.5c-1.6,0-3.4-0.8-3.4-3.1c0-2.3,1.8-3.1,3.4-3.1c1.6,0,3.4,0.8,3.4,3.1C10.6,5.7,8.8,6.5,7.2,6.5z"/>
<path d="M29.6,6.5c-1.6,0-3.4-0.8-3.4-3.1c0-2.3,1.8-3.1,3.4-3.1c1.6,0,3.4,0.8,3.4,3.1C33,5.7,31.2,6.5,29.6,6.5z"/>
</svg>
