<svg xmlns="http://www.w3.org/2000/svg" viewBox="0 0 373.63 101.31">
  <defs>
    <style>
      .a {
        fill: #495961;
      }

      .b {
        fill: #00aca9;
      }
    </style>
  </defs>
  <title>Artboard 1</title>
  <g>
    <g>
      <polygon class="a" points="33.65 78.2 15.16 40.27 30.37 40.27 40.92 61.89 46.1 50.24 36.95 31.48 0 31.48 28.47 89.85 33.65 78.2"/>
      <polygon class="b" points="66.42 4.61 28.47 89.85 34.06 101.31 77.11 4.61 66.42 4.61"/>
      <polygon class="a" points="62.94 70.06 73.64 70.06 102.78 4.61 77.11 4.61 73.19 13.41 88.17 13.41 62.94 70.06"/>
    </g>
    <g>
      <path class="a" d="M319.77,28.05h-6.33V46.61h3.75V40.09h2.5a6.18,6.18,0,0,0,4.49-1.58,5.79,5.79,0,0,0,1.61-4.31,6.16,6.16,0,0,0-1.63-4.44A5.81,5.81,0,0,0,319.77,28.05Zm1.65,8.21a2,2,0,0,1-1.65.7h-2.58V31.18h2.61a1.92,1.92,0,0,1,1.61.83,3.69,3.69,0,0,1,.6,2.21A3.08,3.08,0,0,1,321.42,36.26Zm-57.23,4.1V28.05h-3.76V46.61h3.76l5.47-12.28V46.61h3.75V28.05h-3.75Zm71.15-12.31h-3.43l-5.79,18.56h4l1-3.79h5.12l1,3.79h4Zm-3.45,11.64,1.73-6.61,1.74,6.61ZM203.74,37.07a3.67,3.67,0,0,0,1.7-1.49,4.57,4.57,0,0,0,.63-2.44,4.74,4.74,0,0,0-1.51-3.79,6.64,6.64,0,0,0-4.42-1.3h-5.73V46.61h6.14a6.13,6.13,0,0,0,4.3-1.37,5.3,5.3,0,0,0,1.49-4.08,4.91,4.91,0,0,0-.68-2.66A3.2,3.2,0,0,0,203.74,37.07Zm-5.59-5.89h2a2.16,2.16,0,0,1,1.66.55,2.61,2.61,0,0,1,.51,1.81,2,2,0,0,1-2.21,2.28h-1.95Zm3.93,11.7a1.9,1.9,0,0,1-1.53.62h-2.4v-5h2.64c1.21,0,1.81.89,1.81,2.56A2.69,2.69,0,0,1,202.08,42.88Zm10.48,2.83a5.61,5.61,0,0,0,1.7-2.8,22.19,22.19,0,0,0,.73-5.16l.25-6.57h3.45V46.61h3.76V28.05h-10.8L211.41,37a17.91,17.91,0,0,1-.65,4.94,2,2,0,0,1-1.68,1.53l-.44,0v3.11h.92A4.74,4.74,0,0,0,212.56,45.71Zm17.24-2.89h5.11l1,3.79h4l-5.84-18.56h-3.43l-5.79,18.56h4Zm2.55-9.74,1.74,6.61h-3.47Zm23.76-5H245.44l-.52,8.66a22.07,22.07,0,0,1-.67,4.37A5.14,5.14,0,0,1,243,43.5h-1.24l.2,7.66h3.55V46.61h8.78v4.57h3.44L258,43.5h-1.92ZM252.37,43.5H247a18.12,18.12,0,0,0,1.71-7.21l.31-5.11h3.36Zm32.87-2-3.5-13.43h-4.9V46.61h3.75v-5l-.34-7.73L284,46.61h2.54l3.71-12.75-.34,7.73v5h3.76V28.05h-4.9Zm15.55-1.12V28.05H297V46.61h3.76l5.47-12.28V46.61H310V28.05h-3.75ZM159.72,51.5H146.87v3.12h4.51V70.06h3.76V54.62h4.58Zm-21.51-.26a6,6,0,0,0-4.92,2.15,9.12,9.12,0,0,0-1.77,6v3.17a8.53,8.53,0,0,0,1.81,5.73,6.16,6.16,0,0,0,4.91,2,6.1,6.1,0,0,0,4.9-2.07,8.62,8.62,0,0,0,1.76-5.79V59.27a8.91,8.91,0,0,0-1.81-5.92A6.07,6.07,0,0,0,138.21,51.24Zm2.93,11.32a6.85,6.85,0,0,1-.72,3.5,2.42,2.42,0,0,1-2.18,1.13A2.49,2.49,0,0,1,136,66a6.93,6.93,0,0,1-.72-3.58v-3.3a7.21,7.21,0,0,1,.74-3.59,2.64,2.64,0,0,1,4.42,0,7.6,7.6,0,0,1,.71,3.74Zm-25.67,7.5h3.75V54.62h5.5V70.06h3.75V51.5h-13ZM218.73,59H213.2V51.5h-3.74V70.06h3.74v-8h5.53v8h3.74V51.5h-3.74ZM165,51.5l-5.8,18.56h4l1-3.8h5.11l1,3.8h4L168.44,51.5Zm0,11.63,1.73-6.61,1.73,6.61Zm31.81.67V51.5H193V70.06h3.76l5.47-12.29V70.06H206V51.5h-3.75Zm33.86-12.3-5.8,18.56h4l1-3.8h5.11l1,3.8h4L234.09,51.5Zm0,11.63,1.73-6.61,1.73,6.61ZM185.91,59h-5.53V51.5h-3.75V70.06h3.75v-8h5.53v8h3.74V51.5h-3.74Z"/>
      <path class="b" d="M348,12.18h-3.75V4.61h-2.33V23.17h6a5.24,5.24,0,0,0,4-1.5,5.56,5.56,0,0,0,1.43-4,5.49,5.49,0,0,0-1.41-4A5.3,5.3,0,0,0,348,12.18Zm2.19,8a2.71,2.71,0,0,1-2.22,1h-3.72v-7H348a2.77,2.77,0,0,1,2.22.91,3.71,3.71,0,0,1,.78,2.49A4.07,4.07,0,0,1,350.2,20.19ZM159.41,36h-7.47v-8h-2.33V46.61h2.33V38h7.47v8.57h2.34V28.05h-2.34Zm-2.29-12.86h2.4l-6-18.56h-2l-6,18.56H148l1.43-4.85h6.28ZM150,16.31l2.52-8.43,2.54,8.43ZM139.49,27.8a5.49,5.49,0,0,0-4.59,2.11,9.31,9.31,0,0,0-1.64,5.83v3.49A8.86,8.86,0,0,0,135,44.87a5.61,5.61,0,0,0,4.54,2,5.54,5.54,0,0,0,4.6-2A9.26,9.26,0,0,0,145.74,39V35.59a9.15,9.15,0,0,0-1.68-5.77A5.54,5.54,0,0,0,139.49,27.8Zm3.91,11.39a7.65,7.65,0,0,1-1,4.22,3.7,3.7,0,0,1-5.85-.11,7.84,7.84,0,0,1-1-4.33V35.64a7.68,7.68,0,0,1,1-4.28,3.69,3.69,0,0,1,5.86,0,8,8,0,0,1,1,4.38Zm-8.84-24.77.28-7.8H140V23.17h2.34V4.61H132.6l-.31,9.49a32.13,32.13,0,0,1-.38,4.28,4.73,4.73,0,0,1-.79,2.05,2,2,0,0,1-1.45.71l-.44,0v2H130a3.7,3.7,0,0,0,2.51-.88,5.43,5.43,0,0,0,1.45-2.65A25,25,0,0,0,134.56,14.42Zm-9.1,7.25a5.6,5.6,0,0,0,1.43-4,5.49,5.49,0,0,0-1.41-4,5.31,5.31,0,0,0-3.92-1.46h-3.74V6.62h7.3v-2h-9.65V23.17h6A5.24,5.24,0,0,0,125.46,21.67Zm-7.64-7.48h3.73a2.75,2.75,0,0,1,2.21.91,3.67,3.67,0,0,1,.79,2.49,4.07,4.07,0,0,1-.79,2.6,2.71,2.71,0,0,1-2.22,1h-3.72ZM127,30.9a5.62,5.62,0,0,0-3.18-1h-.32V27.29h-2.26v2.63H121a5.72,5.72,0,0,0-3.22,1,6.52,6.52,0,0,0-2.27,2.68,9.35,9.35,0,0,0,0,7.66,6.4,6.4,0,0,0,2.27,2.69,5.59,5.59,0,0,0,3.21,1h.3v2.5h2.26v-2.5h.31a5.7,5.7,0,0,0,3.19-1,6.52,6.52,0,0,0,2.27-2.69,8.71,8.71,0,0,0,.82-3.83,8.58,8.58,0,0,0-.82-3.8A6.4,6.4,0,0,0,127,30.9Zm-5.76,12h-.33a3.53,3.53,0,0,1-3-1.47,6.79,6.79,0,0,1-1.07-4.07A6.76,6.76,0,0,1,118,33.31a3.51,3.51,0,0,1,3-1.47h.3Zm5.53-1.49a3.46,3.46,0,0,1-3,1.49h-.29V31.84h.38a3.47,3.47,0,0,1,2.91,1.52,6.76,6.76,0,0,1,1.05,4A6.82,6.82,0,0,1,126.8,41.45ZM365,2.48a4,4,0,0,0,2.77,1,4,4,0,0,0,2.76-.94A3.19,3.19,0,0,0,371.54,0h-1.91a1.87,1.87,0,0,1-.51,1.4,1.89,1.89,0,0,1-1.39.5,1.92,1.92,0,0,1-1.42-.5,2,2,0,0,1-.48-1.4H363.9A3.19,3.19,0,0,0,365,2.48ZM355,23.17h2.34V4.61H355ZM371.3,4.61l-7.23,14.3V4.61h-2.35V23.17h2.35l7.23-14.3v14.3h2.33V4.61ZM212.8,13.4a4.41,4.41,0,0,0,1.76-1.55,4.1,4.1,0,0,0,.65-2.29,4.94,4.94,0,0,0-1.28-3.71,5.33,5.33,0,0,0-3.82-1.24h-5.29V23.17h5.47a5.18,5.18,0,0,0,3.91-1.42,5.48,5.48,0,0,0,1.36-3.93,5.25,5.25,0,0,0-.74-2.86A3.51,3.51,0,0,0,212.8,13.4Zm-5.65-6.78h3a2.76,2.76,0,0,1,2.06.69,3.13,3.13,0,0,1,.68,2.23,3.08,3.08,0,0,1-.75,2.17,2.48,2.48,0,0,1-1.95.82h-3Zm5.29,13.68a2.68,2.68,0,0,1-2.1.87h-3.19V14.49h3.24q2.84,0,2.83,3.35A3.56,3.56,0,0,1,212.44,20.3Zm70.4-5.71h6.56v-2h-6.56v-6h7.52v-2h-9.85V23.17h10v-2h-7.65ZM225.12,4.36a5.46,5.46,0,0,0-4.59,2.11,9.25,9.25,0,0,0-1.65,5.83v3.49a8.8,8.8,0,0,0,1.73,5.64,5.59,5.59,0,0,0,4.53,2,5.52,5.52,0,0,0,4.6-2.06,9.22,9.22,0,0,0,1.62-5.85V12.15a9.09,9.09,0,0,0-1.68-5.77A5.53,5.53,0,0,0,225.12,4.36ZM229,15.75a7.76,7.76,0,0,1-1,4.22,3.71,3.71,0,0,1-5.86-.11,7.87,7.87,0,0,1-1-4.34V12.2a7.72,7.72,0,0,1,1-4.29,3.69,3.69,0,0,1,5.86,0,7.84,7.84,0,0,1,1,4.37Zm67.26-1.65a30.51,30.51,0,0,1-.38,4.28,4.73,4.73,0,0,1-.79,2.05,2,2,0,0,1-1.45.71l-.44,0v2H294a3.68,3.68,0,0,0,2.51-.88,5.35,5.35,0,0,0,1.45-2.65,25,25,0,0,0,.65-5.22l.28-7.8H304V23.17h2.34V4.61H296.6ZM252.4,18.91V4.61h-2.35V23.17h2.35l7.22-14.3v14.3H262V4.61h-2.34ZM265.22,6.62h4.87V23.17h2.34V6.62h4.88v-2H265.22ZM165,6.62h7.3v-2h-9.64V23.17H165Zm76.13-2h-5.91V23.17h2.33V15.91h3.75a5.49,5.49,0,0,0,4-1.5,5.67,5.67,0,0,0,1.41-4.12,5.71,5.71,0,0,0-1.48-4.13A5.37,5.37,0,0,0,241.14,4.61ZM243.53,13a3,3,0,0,1-2.39.94h-3.58V6.62h3.6a2.91,2.91,0,0,1,2.34,1,4,4,0,0,1,.86,2.68A3.9,3.9,0,0,1,243.53,13ZM178.44,28.05h-9.59l-.36,8.05a27,27,0,0,1-.72,5.1,9.19,9.19,0,0,1-1.46,3.41H165v5.26h2.34V46.61h11v3.26h2.33l0-5.26h-2.18ZM176.1,44.61h-7.31a12.81,12.81,0,0,0,1.35-3.47,26.43,26.43,0,0,0,.71-5.09l.27-6h5Zm159.13-32h-7.47v-8h-2.33V23.17h2.33V14.59h7.47v8.58h2.35V4.61h-2.35Zm-145.69-6h4.87V23.17h2.33V6.62h4.88v-2H189.54Zm127.22,5.56H313V4.61h-2.34V23.17h6a5.24,5.24,0,0,0,4-1.5,5.6,5.6,0,0,0,1.43-4,5.49,5.49,0,0,0-1.41-4A5.31,5.31,0,0,0,316.76,12.18Zm2.2,8a2.71,2.71,0,0,1-2.22,1H313v-7h3.73a2.75,2.75,0,0,1,2.21.91,3.67,3.67,0,0,1,.79,2.49A4.07,4.07,0,0,1,319,20.19ZM181,4.36a5.49,5.49,0,0,0-4.59,2.11,9.31,9.31,0,0,0-1.64,5.83v3.49a8.8,8.8,0,0,0,1.73,5.64,6.15,6.15,0,0,0,9.13-.06,9.28,9.28,0,0,0,1.62-5.85V12.15a9.15,9.15,0,0,0-1.68-5.77A5.55,5.55,0,0,0,181,4.36Zm3.91,11.39a7.67,7.67,0,0,1-1,4.22A3.28,3.28,0,0,1,181,21.35,3.32,3.32,0,0,1,178,19.86a8,8,0,0,1-1-4.34V12.2a7.64,7.64,0,0,1,1-4.29,3.69,3.69,0,0,1,5.86,0,7.93,7.93,0,0,1,1,4.37Z"/>
    </g>
  </g>
</svg>
