<svg xmlns="http://www.w3.org/2000/svg" viewBox="0 0 52 52">
  <defs>
    <style>
      .a {
        fill: #fff;
      }

      .b {
        opacity: 0.1;
      }
    </style>
  </defs>
  <title>audio</title>
  <path class="a" d="M24,24a1,1,0,0,1-1,1h-.86a4,4,0,0,0,7.72,0H29a1,1,0,0,1,0-2h1V22H29a1,1,0,0,1,0-2h1V19H29a1,1,0,0,1,0-2h.86a4,4,0,0,0-7.72,0H23a1,1,0,0,1,0,2H22v1h1a1,1,0,0,1,0,2H22v1h1A1,1,0,0,1,24,24Zm10,0a1,1,0,0,0-2,0,6,6,0,0,1-12,0,1,1,0,1,0-2,0,8,8,0,0,0,7,7.93V37H22a1,1,0,0,0,0,2h8a1,1,0,0,0,0-2H27V31.93A8,8,0,0,0,34,24Z"/>
  <g class="b">
    <path class="a" d="M26,3A23,23,0,1,1,3,26,23,23,0,0,1,26,3m0-3A26,26,0,1,0,52,26,26,26,0,0,0,26,0Z"/>
  </g>
</svg>
