<svg xmlns="http://www.w3.org/2000/svg" xmlns:xlink="http://www.w3.org/1999/xlink" width="82" height="82" viewBox="0 0 82 82"><defs><path id="asuma" d="M460 207a40 40 0 1 1 0 80 40 40 0 0 1 0-80z"/><path id="asumc" d="M474.58 260.4c.87 2.5 2.37 3.35 3.94 3.35v2.27h-18.65v-2.27c3.7 0 3.88-1.64 3.3-3.35l-9.56-27.22 2.2-6.18h6.84l11.93 33.4s-.87-2.49 0 0zm-22.26-2.56c-2.71 0-5.32-1.33-5.32-5.03s2.6-5.08 5.32-5.08c2.65 0 5.34 1.38 5.34 5.08s-2.7 5.03-5.34 5.03z"/><clipPath id="asumb"><use fill="#fff" xlink:href="#asuma"/></clipPath></defs><g><g transform="translate(-419 -206)"><g><use fill="#fff" xlink:href="#asuma"/><use fill="#fff" fill-opacity="0" stroke="#e5e5e5" stroke-linecap="round" stroke-linejoin="round" stroke-miterlimit="50" stroke-width="4" clip-path="url(&quot;#asumb&quot;)" xlink:href="#asuma"/></g><g><use fill="#1a1a1a" xlink:href="#asumc"/></g></g></g></svg>